{"accessors":[{"bufferView":0,"componentType":5126,"count":192,"max":[-71.2623519897461,11.851824760437,-17.0055999755859],"min":[-105.853446960449,10.8191747665405,-58.4395980834961],"normalized":false,"type":"VEC3"},{"bufferView":1,"componentType":5126,"count":192,"max":[0.0,0.0,0.0000763009302318096,-1.0],"min":[-1.0,-1.0,-1.0,-1.0],"normalized":false,"type":"VEC4"},{"bufferView":2,"componentType":5126,"count":192,"max":[1.0,1.0,1.0],"min":[-1.0,-1.0,-1.0],"normalized":false,"type":"VEC3"},{"bufferView":3,"componentType":5126,"count":192,"max":[1.0,1.0],"min":[0.0,0.0],"normalized":false,"type":"VEC2"},{"bufferView":4,"componentType":5123,"count":192,"max":[191.0],"min":[0.0],"normalized":false,"type":"SCALAR"},{"bufferView":5,"componentType":5126,"count":1284,"max":[-71.1869659423828,11.4317092895508,-16.9186973571777],"min":[-105.943603515625,-0.829974055290222,-58.5037536621094],"normalized":false,"type":"VEC3"},{"bufferView":6,"componentType":5126,"count":1284,"max":[1.0,0.0,0.0000763009302318096,-1.0],"min":[-1.0,-1.0,-1.0,-1.0],"normalized":false,"type":"VEC4"},{"bufferView":7,"componentType":5126,"count":1284,"max":[1.0,1.0,1.0],"min":[-1.0,-1.0,-1.0],"normalized":false,"type":"VEC3"},{"bufferView":8,"componentType":5126,"count":1284,"max":[1.0,1.0],"min":[0.0,0.0],"normalized":false,"type":"VEC2"},{"bufferView":9,"componentType":5123,"count":1284,"max":[1283.0],"min":[0.0],"normalized":false,"type":"SCALAR"},{"bufferView":10,"componentType":5126,"count":36,"max":[-102.040313720703,3.15190505981445,-21.2243995666504],"min":[-103.06169128418,0.219895005226135,-22.2243995666504],"normalized":false,"type":"VEC3"},{"bufferView":11,"componentType":5126,"count":36,"max":[0.0,0.0,0.0000763009302318096,-1.0],"min":[-1.0,-1.0,-1.0,-1.0],"normalized":false,"type":"VEC4"},{"bufferView":12,"componentType":5126,"count":36,"max":[1.0,1.0,1.0],"min":[-1.0,-1.0,-1.0],"normalized":false,"type":"VEC3"},{"bufferView":13,"componentType":5126,"count":36,"max":[1.0,1.0],"min":[0.0,0.0],"normalized":false,"type":"VEC2"},{"bufferView":14,"componentType":5123,"count":36,"max":[35.0],"min":[0.0],"normalized":false,"type":"SCALAR"}],"asset":{"generator":"Godot Engine v4.5.1.stable.steam@f62fdbde15035c5576dad93e586201f4d41ef0cb","version":"2.0"},"bufferViews":[{"buffer":0,"byteLength":2304,"byteStride":12,"target":34962},{"buffer":0,"byteLength":3072,"byteOffset":2304,"byteStride":16,"target":34962},{"buffer":0,"byteLength":2304,"byteOffset":5376,"byteStride":12,"target":34962},{"buffer":0,"byteLength":1536,"byteOffset":7680,"byteStride":8,"target":34962},{"buffer":0,"byteLength":384,"byteOffset":9216,"target":34963},{"buffer":0,"byteLength":15408,"byteOffset":9600,"byteStride":12,"target":34962},{"buffer":0,"byteLength":20544,"byteOffset":25008,"byteStride":16,"target":34962},{"buffer":0,"byteLength":15408,"byteOffset":45552,"byteStride":12,"target":34962},{"buffer":0,"byteLength":10272,"byteOffset":60960,"byteStride":8,"target":34962},{"buffer":0,"byteLength":2568,"byteOffset":71232,"target":34963},{"buffer":0,"byteLength":432,"byteOffset":73800,"byteStride":12,"target":34962},{"buffer":0,"byteLength":576,"byteOffset":74232,"byteStride":16,"target":34962},{"buffer":0,"byteLength":432,"byteOffset":74808,"byteStride":12,"target":34962},{"buffer":0,"byteLength":288,"byteOffset":75240,"byteStride":8,"target":34962},{"buffer":0,"byteLength":72,"byteOffset":75528,"target":34963}],"buffers":[{"byteLength":75600,"uri":"gas_station0.bin"}],"extensionsRequired":["KHR_texture_transform"],"extensionsUsed":["GODOT_single_root","KHR_texture_transform"],"images":[{"uri":"textures%2F_albedo.png"}],"materials":[{"extensions":{},"pbrMetallicRoughness":{"baseColorFactor":[1.0,1.0,1.0,1.0],"baseColorTexture":{"extensions":{"KHR_texture_transform":{"scale":[0.5,0.5]}},"index":0},"metallicFactor":0.0,"roughnessFactor":1.0}}],"meshes":[{"primitives":[{"attributes":{"NORMAL":2,"POSITION":0,"TANGENT":1,"TEXCOORD_0":3},"indices":4,"material":0,"mode":4},{"attributes":{"NORMAL":7,"POSITION":5,"TANGENT":6,"TEXCOORD_0":8},"indices":9,"material":0,"mode":4},{"attributes":{"NORMAL":12,"POSITION":10,"TANGENT":11,"TEXCOORD_0":13},"indices":14,"material":0,"mode":4}]}],"nodes":[{"children":[1,2,3,4,5,6,7,8,9,10,11,12,13,14,15,16,17,18,19,20,21,22,23,24,25,26,27],"mesh":0,"name":"CSGCombiner3D22","rotation":[0.0,0.70710676908493,0.0,0.70710676908493]},{"name":"CSGBox3D8","translation":[-88.5578994750977,11.3354997634888,-37.722599029541]},{"name":"CSGBox3D12","translation":[-91.1061019897461,6.20495986938477,-22.4099006652832]},{"name":"CSGBox3D11","translation":[-91.1155014038086,6.14448976516724,-40.8361015319824]},{"name":"CSGBox3D5","translation":[-78.2500991821289,5.99384021759033,-22.6599998474121]},{"name":"CSGBox3D7","translation":[-78.2725982666016,5.5863299369812,-40.8969993591309]},{"name":"CSGBox3D6","translation":[-101.101997375488,5.67182016372681,-40.8361015319824]},{"name":"CSGBox3D14","translation":[-101.101997375488,5.67182016372681,-52.2445983886719]},{"name":"CSGBox3D15","translation":[-91.2087020874023,5.67182016372681,-52.2445983886719]},{"name":"CSGBox3D16","translation":[-78.7676010131836,5.67182016372681,-52.2445983886719]},{"name":"CSGBox3D9","translation":[-102.551002502441,1.68589997291565,-21.7243995666504]},{"name":"CSGBox3D21","translation":[-80.2768020629883,8.86166000366211,-22.5345993041992]},{"name":"CSGBox3D25","translation":[-76.6831970214844,8.86166000366211,-22.5345993041992]},{"name":"CSGBox3D22","translation":[-80.2768020629883,8.86166000366211,-40.8250007629395]},{"name":"CSGBox3D26","translation":[-76.5774993896484,8.86166000366211,-40.8250007629395]},{"name":"CSGBox3D23","translation":[-80.5074996948242,8.59976005554199,-52.2289009094238]},{"name":"CSGBox3D27","translation":[-77.6248016357422,8.59976005554199,-52.2289009094238]},{"name":"CSGBox3D17","translation":[-79.1585998535156,1.57097995281219,-40.9075012207031]},{"name":"CSGBox3D20","translation":[-79.5102996826172,0.853070974349976,-52.2599983215332]},{"name":"CSGBox3D28","translation":[-80.8626022338867,2.83211994171143,-52.2599983215332]},{"name":"CSGBox3D29","translation":[-80.8626022338867,2.83211994171143,-40.9089012145996]},{"name":"CSGBox3D30","translation":[-80.8626022338867,2.83211994171143,-22.617000579834]},{"name":"CSGBox3D13","translation":[-79.3415985107422,1.58529996871948,-22.6196994781494]},{"name":"CSGBox3D4","translation":[-102.585998535156,5.72700023651123,-22.7411994934082]},{"name":"CSGBox3D","translation":[-89.1036987304688,11.2966995239258,-16.9981002807617]},{"name":"CSGBox3D2","translation":[-88.5690994262695,11.173999786377,-58.2955017089844]},{"name":"CSGBox3D3","rotation":[0.0,-0.70710676908493,0.0,0.70710676908493],"translation":[-71.2566986083984,11.1795997619629,-37.7158012390137]},{"name":"CSGBox3D24","rotation":[0.0,-0.70710676908493,0.0,0.70710676908493],"translation":[-105.857002258301,11.1698999404907,-37.7058982849121]}],"samplers":[{"magFilter":9729,"minFilter":9987,"wrapS":10497,"wrapT":10497}],"scene":0,"scenes":[{"nodes":[0]}],"textures":[{"sampler":0,"source":0}]}