{"accessors":[{"bufferView":0,"componentType":5126,"count":858,"max":[15.0073986053467,10.5463600158691,16.2838115692139],"min":[-16.6276779174805,-0.282661020755768,-13.8171911239624],"normalized":false,"type":"VEC3"},{"bufferView":1,"componentType":5126,"count":858,"max":[1.0,0.340973824262619,1.0,1.0],"min":[-1.0,-1.0,-1.0,-1.0],"normalized":false,"type":"VEC4"},{"bufferView":2,"componentType":5126,"count":858,"max":[1.0,1.0,1.0],"min":[-1.0,-1.0,-1.0],"normalized":false,"type":"VEC3"},{"bufferView":3,"componentType":5126,"count":858,"max":[1.0,1.0],"min":[0.0,0.0],"normalized":false,"type":"VEC2"},{"bufferView":4,"componentType":5123,"count":858,"max":[857.0],"min":[0.0],"normalized":false,"type":"SCALAR"},{"bufferView":5,"componentType":5126,"count":30,"max":[5.0,-0.282661020755768,10.2761898040771],"min":[-5.0,-0.5,8.44088935852051],"normalized":false,"type":"VEC3"},{"bufferView":6,"componentType":5126,"count":30,"max":[0.0,0.0,0.0000763009302318096,-1.0],"min":[-1.0,-1.0,-1.0,-1.0],"normalized":false,"type":"VEC4"},{"bufferView":7,"componentType":5126,"count":30,"max":[1.0,0.0,1.0],"min":[-1.0,-1.0,-1.0],"normalized":false,"type":"VEC3"},{"bufferView":8,"componentType":5126,"count":30,"max":[1.0,1.0],"min":[0.0,0.0],"normalized":false,"type":"VEC2"},{"bufferView":9,"componentType":5123,"count":30,"max":[29.0],"min":[0.0],"normalized":false,"type":"SCALAR"},{"bufferView":10,"componentType":5126,"count":1542,"max":[21.4084434509277,10.0956354141235,22.0155448913574],"min":[-20.9198951721191,-0.0484099388122559,-19.1993446350098],"normalized":false,"type":"VEC3"},{"bufferView":11,"componentType":5126,"count":1542,"max":[1.0,0.0000647314373054542,1.0,1.0],"min":[-1.0,-1.0,-1.0,-1.0],"normalized":false,"type":"VEC4"},{"bufferView":12,"componentType":5126,"count":1542,"max":[1.0,1.0,1.0],"min":[-1.0,-1.0,-1.0],"normalized":false,"type":"VEC3"},{"bufferView":13,"componentType":5126,"count":1542,"max":[1.0,1.0],"min":[0.0,0.0],"normalized":false,"type":"VEC2"},{"bufferView":14,"componentType":5123,"count":1542,"max":[1541.0],"min":[0.0],"normalized":false,"type":"SCALAR"},{"bufferView":15,"componentType":5126,"count":54,"max":[95.5486907958984,0.726530075073242,-38.9384574890137],"min":[-68.0493240356445,-0.273469924926758,-73.9384765625],"normalized":false,"type":"VEC3"},{"bufferView":16,"componentType":5126,"count":54,"max":[1.0,0.0,0.0000763009302318096,-1.0],"min":[-0.0000152601860463619,-1.0,-1.0,-1.0],"normalized":false,"type":"VEC4"},{"bufferView":17,"componentType":5126,"count":54,"max":[1.0,1.0,1.0],"min":[-1.0,-1.0,-1.0],"normalized":false,"type":"VEC3"},{"bufferView":18,"componentType":5126,"count":54,"max":[1.0,1.0],"min":[0.0,0.0],"normalized":false,"type":"VEC2"},{"bufferView":19,"componentType":5123,"count":54,"max":[53.0],"min":[0.0],"normalized":false,"type":"SCALAR"},{"bufferView":20,"componentType":5126,"count":306,"max":[6.6374249458313,3.04047012329102,3.05008506774902],"min":[-12.6305599212646,0.659429907798767,-19.1993427276611],"normalized":false,"type":"VEC3"},{"bufferView":21,"componentType":5126,"count":306,"max":[0.0,0.0,1.0,1.0],"min":[-1.0,-1.0,-1.0,1.0],"normalized":false,"type":"VEC4"},{"bufferView":22,"componentType":5126,"count":306,"max":[1.0,1.0,1.0],"min":[-1.0,-1.0,-1.0],"normalized":false,"type":"VEC3"},{"bufferView":23,"componentType":5126,"count":306,"max":[1.0,1.0],"min":[0.0,0.0],"normalized":false,"type":"VEC2"},{"bufferView":24,"componentType":5123,"count":306,"max":[305.0],"min":[0.0],"normalized":false,"type":"SCALAR"},{"bufferView":25,"componentType":5126,"count":240,"max":[38.3531188964844,0.656110048294067,40.9277076721191],"min":[-41.6468811035156,0.456110030412674,-38.9384727478027],"normalized":false,"type":"VEC3"},{"bufferView":26,"componentType":5126,"count":240,"max":[0.0,0.0,0.0000763009302318096,-1.0],"min":[-1.0,-1.0,-1.0,-1.0],"normalized":false,"type":"VEC4"},{"bufferView":27,"componentType":5126,"count":240,"max":[1.0,1.0,1.0],"min":[-1.0,-1.0,-0.0000152590218931437],"normalized":false,"type":"VEC3"},{"bufferView":28,"componentType":5126,"count":240,"max":[1.0,1.0],"min":[0.0,0.0],"normalized":false,"type":"VEC2"},{"bufferView":29,"componentType":5123,"count":240,"max":[239.0],"min":[0.0],"normalized":false,"type":"SCALAR"}],"asset":{"generator":"Godot Engine v4.5.1.stable.steam@f62fdbde15035c5576dad93e586201f4d41ef0cb","version":"2.0"},"bufferViews":[{"buffer":0,"byteLength":10296,"byteStride":12,"target":34962},{"buffer":0,"byteLength":13728,"byteOffset":10296,"byteStride":16,"target":34962},{"buffer":0,"byteLength":10296,"byteOffset":24024,"byteStride":12,"target":34962},{"buffer":0,"byteLength":6864,"byteOffset":34320,"byteStride":8,"target":34962},{"buffer":0,"byteLength":1716,"byteOffset":41184,"target":34963},{"buffer":0,"byteLength":360,"byteOffset":42900,"byteStride":12,"target":34962},{"buffer":0,"byteLength":480,"byteOffset":43260,"byteStride":16,"target":34962},{"buffer":0,"byteLength":360,"byteOffset":43740,"byteStride":12,"target":34962},{"buffer":0,"byteLength":240,"byteOffset":44100,"byteStride":8,"target":34962},{"buffer":0,"byteLength":60,"byteOffset":44340,"target":34963},{"buffer":0,"byteLength":18504,"byteOffset":44400,"byteStride":12,"target":34962},{"buffer":0,"byteLength":24672,"byteOffset":62904,"byteStride":16,"target":34962},{"buffer":0,"byteLength":18504,"byteOffset":87576,"byteStride":12,"target":34962},{"buffer":0,"byteLength":12336,"byteOffset":106080,"byteStride":8,"target":34962},{"buffer":0,"byteLength":3084,"byteOffset":118416,"target":34963},{"buffer":0,"byteLength":648,"byteOffset":121500,"byteStride":12,"target":34962},{"buffer":0,"byteLength":864,"byteOffset":122148,"byteStride":16,"target":34962},{"buffer":0,"byteLength":648,"byteOffset":123012,"byteStride":12,"target":34962},{"buffer":0,"byteLength":432,"byteOffset":123660,"byteStride":8,"target":34962},{"buffer":0,"byteLength":108,"byteOffset":124092,"target":34963},{"buffer":0,"byteLength":3672,"byteOffset":124200,"byteStride":12,"target":34962},{"buffer":0,"byteLength":4896,"byteOffset":127872,"byteStride":16,"target":34962},{"buffer":0,"byteLength":3672,"byteOffset":132768,"byteStride":12,"target":34962},{"buffer":0,"byteLength":2448,"byteOffset":136440,"byteStride":8,"target":34962},{"buffer":0,"byteLength":612,"byteOffset":138888,"target":34963},{"buffer":0,"byteLength":2880,"byteOffset":139500,"byteStride":12,"target":34962},{"buffer":0,"byteLength":3840,"byteOffset":142380,"byteStride":16,"target":34962},{"buffer":0,"byteLength":2880,"byteOffset":146220,"byteStride":12,"target":34962},{"buffer":0,"byteLength":1920,"byteOffset":149100,"byteStride":8,"target":34962},{"buffer":0,"byteLength":480,"byteOffset":151020,"target":34963}],"buffers":[{"byteLength":151500,"uri":"house0.bin"}],"extensionsUsed":["GODOT_single_root"],"images":[{"uri":"textures%2F_albedo.png"},{"uri":"textures%2F_albedo2.png"},{"uri":"textures%2F_albedo3.png"},{"uri":"textures%2F_albedo4.png"}],"materials":[{"extensions":{},"pbrMetallicRoughness":{"baseColorFactor":[1.0,1.0,1.0,1.0],"baseColorTexture":{"index":0},"metallicFactor":0.0,"roughnessFactor":1.0}},{},{"extensions":{},"pbrMetallicRoughness":{"baseColorFactor":[1.0,1.0,1.0,1.0],"baseColorTexture":{"index":1},"metallicFactor":0.0,"roughnessFactor":1.0}},{"extensions":{},"pbrMetallicRoughness":{"baseColorFactor":[1.0,1.0,1.0,1.0],"baseColorTexture":{"index":2},"metallicFactor":0.0,"roughnessFactor":1.0}},{"extensions":{},"pbrMetallicRoughness":{"baseColorFactor":[1.0,1.0,1.0,1.0],"baseColorTexture":{"index":3},"metallicFactor":0.0,"roughnessFactor":1.0}},{"extensions":{},"pbrMetallicRoughness":{"baseColorFactor":[0.138780623674393,0.138780623674393,0.138780623674393,1.0],"baseColorTexture":{"index":4},"metallicFactor":0.0,"roughnessFactor":1.0}}],"meshes":[{"primitives":[{"attributes":{"NORMAL":2,"POSITION":0,"TANGENT":1,"TEXCOORD_0":3},"indices":4,"material":0,"mode":4},{"attributes":{"NORMAL":7,"POSITION":5,"TANGENT":6,"TEXCOORD_0":8},"indices":9,"material":1,"mode":4},{"attributes":{"NORMAL":12,"POSITION":10,"TANGENT":11,"TEXCOORD_0":13},"indices":14,"material":2,"mode":4},{"attributes":{"NORMAL":17,"POSITION":15,"TANGENT":16,"TEXCOORD_0":18},"indices":19,"material":3,"mode":4},{"attributes":{"NORMAL":22,"POSITION":20,"TANGENT":21,"TEXCOORD_0":23},"indices":24,"material":4,"mode":4},{"attributes":{"NORMAL":27,"POSITION":25,"TANGENT":26,"TEXCOORD_0":28},"indices":29,"material":5,"mode":4}]}],"nodes":[{"children":[1,2,3,4,5,6,7,8,9,10,11,12,13,14,15,16,17,18,19,20,21,22,23,24,26,27,28,29,30,31,32,33,34],"mesh":0,"name":"CSGCombiner3D2"},{"name":"Ch達o","translation":[-0.956176996231079,0.217338994145393,1.23330998420715]},{"name":"Ch達o2","translation":[-0.956176996231079,4.82911014556885,1.23330998420715]},{"name":"Ch達o3","rotation":[0.0,0.0,-0.173098012804985,0.984904587268829],"translation":[7.49094009399414,7.25531005859375,1.23330998420715]},{"name":"Ch達o4","rotation":[-0.14953538775444,0.988756418228149,-0.00000000653638831948911,0.0000000432199378508358],"translation":[-8.02165031433105,7.47063016891479,1.23330998420715]},{"name":"CSGBox3D10","translation":[0.0,0.0,9.35853958129883]},{"name":"ParedeCasa","rotation":[0.0,0.70710676908493,0.0,0.70710676908493],"translation":[15.0089998245239,2.46737003326416,0.32608699798584]},{"name":"ParendeCasa2","rotation":[0.0,0.70710676908493,0.0,0.70710676908493],"translation":[-15.6393003463745,2.46737003326416,0.693911015987396]},{"name":"ParendeCasa5","rotation":[0.0,0.70710676908493,0.0,0.70710676908493],"translation":[-20.5666999816895,2.46737003326416,1.3646399974823]},{"name":"ParendeCasa6","rotation":[0.0,0.70710676908493,0.0,0.70710676908493],"translation":[21.0667991638184,2.46737003326416,1.49734997749329]},{"name":"ParendeCasa3","rotation":[0.0,1.0,0.0,-0.000000043711398944879],"translation":[-0.0925083011388779,2.46737003326416,-13.6525001525879]},{"name":"ParendeCasa11","rotation":[0.0,1.0,0.0,-0.000000043711398944879],"translation":[-0.849565029144287,5.58743000030518,-13.6401996612549]},{"name":"ParendeCasa19","rotation":[0.0,1.0,0.0,-0.000000043711398944879],"translation":[-0.292008996009827,4.63049983978271,-14.3520002365112]},{"name":"ParendeCasa13","rotation":[0.0,1.0,0.0,-0.000000043711398944879],"translation":[10.4568996429443,5.11724996566772,-13.6401996612549]},{"name":"ParendeCasa14","rotation":[0.0,1.0,0.0,-0.000000043711398944879],"translation":[-11.5198001861572,5.11724996566772,-13.6401996612549]},{"name":"ParendeCasa12","rotation":[0.0,1.0,0.0,-0.000000043711398944879],"translation":[0.361642003059387,8.58504009246826,-13.6401996612549]},{"name":"ParendeCasa15","rotation":[0.0,1.0,0.0,-0.000000043711398944879],"translation":[-0.798588991165161,5.58743000030518,16.0091991424561]},{"name":"ParendeCasa16","rotation":[0.0,1.0,0.0,-0.000000043711398944879],"translation":[10.4897003173828,5.11724996566772,16.0091991424561]},{"name":"ParendeCasa17","rotation":[0.0,1.0,0.0,-0.000000043711398944879],"translation":[-11.4688997268677,5.11724996566772,16.0091991424561]},{"name":"ParendeCasa18","rotation":[0.0,1.0,0.0,-0.000000043711398944879],"translation":[0.412618011236191,8.58504009246826,16.0091991424561]},{"name":"ParedeQuintal","rotation":[0.0,1.0,0.0,-0.000000043711398944879],"translation":[0.236956000328064,2.46737003326416,-18.8577003479004]},{"name":"ParedeQuintal2","rotation":[0.0,1.0,0.0,-0.000000043711398944879],"translation":[-0.166978001594543,2.46737003326416,21.673900604248]},{"name":"ParendeCasa4","rotation":[0.0,1.0,0.0,-0.000000043711398944879],"translation":[-0.046457301825285,2.46737003326416,15.0459003448486]},{"name":"ParendeCasa7","rotation":[0.0,1.0,0.0,-0.000000043711398944879],"translation":[-5.08173990249634,2.46737003326416,2.60028004646301]},{"children":[25],"name":"ParendeCasa9","rotation":[0.0,1.0,0.0,-0.000000043711398944879],"translation":[10.6286001205444,2.46737003326416,-4.64117002487183]},{"name":"Rua","rotation":[0.0,0.70710676908493,0.0,0.70710676908493],"translation":[-3.12108993530273,-2.24083995819092,51.7972984313965]},{"name":"ParendeCasa8","rotation":[0.0,1.0,0.0,-0.000000043711398944879],"translation":[6.07464981079102,2.38955998420715,0.880277991294861]},{"name":"ParendeCasa10","rotation":[0.0,1.0,0.0,-0.000000043711398944879],"translation":[-5.58099985122681,2.38955998420715,8.81437969207764]},{"name":"CSGBox3D7","translation":[0.767982006072998,1.84994995594025,-13.6408996582031]},{"name":"CSGBox3D8","translation":[-11.4790000915527,1.84994995594025,2.48884010314941]},{"name":"CSGBox3D9","translation":[-2.18760991096497,1.84994995594025,2.48884010314941]},{"name":"CSGBox3D11","rotation":[0.0,0.70710676908493,0.0,0.70710676908493],"translation":[6.07617998123169,1.84994995594025,-9.63191032409668]},{"name":"CSGBox3D12","rotation":[0.0,0.70710676908493,0.0,0.70710676908493],"translation":[6.07617998123169,1.84994995594025,-0.218721002340317]},{"name":"PortaQuintal","translation":[0.767982006072998,1.84994995594025,-18.9235000610352]},{"name":"Calcada3","translation":[-1.64688003063202,0.556110024452209,0.927708029747009]}],"samplers":[{"magFilter":9729,"minFilter":9987,"wrapS":10497,"wrapT":10497}],"scene":0,"scenes":[{"nodes":[0]}],"textures":[{"sampler":0,"source":0},{"sampler":0,"source":1},{"sampler":0,"source":2},{"sampler":0,"source":0},{"sampler":0,"source":3}]}