{"accessors":[{"bufferView":0,"componentType":5126,"count":741,"max":[10.0,0.673137009143829,8.54283142089844],"min":[-10.0,-0.326862990856171,-7.50016784667969],"normalized":false,"type":"VEC3"},{"bufferView":1,"componentType":5126,"count":741,"max":[0.000122085213661194,0.0,0.0000763009302318096,-1.0],"min":[-1.0,-1.0,-1.0,-1.0],"normalized":false,"type":"VEC4"},{"bufferView":2,"componentType":5126,"count":741,"max":[1.0,1.0,1.0],"min":[-1.0,-1.0,-1.0],"normalized":false,"type":"VEC3"},{"bufferView":3,"componentType":5126,"count":741,"max":[1.0,1.0],"min":[0.0,0.0],"normalized":false,"type":"VEC2"},{"bufferView":4,"componentType":5123,"count":741,"max":[740.0],"min":[0.0],"normalized":false,"type":"SCALAR"},{"bufferView":5,"componentType":5126,"count":84,"max":[10.0,5.94142007827759,8.54283142089844],"min":[-10.0,4.94142007827759,-7.50016784667969],"normalized":false,"type":"VEC3"},{"bufferView":6,"componentType":5126,"count":84,"max":[0.0,0.0,0.0000763009302318096,-1.0],"min":[-1.0,-1.0,-1.0,-1.0],"normalized":false,"type":"VEC4"},{"bufferView":7,"componentType":5126,"count":84,"max":[1.0,1.0,1.0],"min":[-1.0,-1.0,-1.0],"normalized":false,"type":"VEC3"},{"bufferView":8,"componentType":5126,"count":84,"max":[1.0,1.0],"min":[0.0,0.0],"normalized":false,"type":"VEC2"},{"bufferView":9,"componentType":5123,"count":84,"max":[83.0],"min":[0.0],"normalized":false,"type":"SCALAR"},{"bufferView":10,"componentType":5126,"count":30,"max":[4.99999475479126,0.537667036056519,10.2836446762085],"min":[-5.01850557327271,0.337667018175125,8.54283142089844],"normalized":false,"type":"VEC3"},{"bufferView":11,"componentType":5126,"count":30,"max":[0.0,0.0,0.0000763009302318096,-1.0],"min":[-1.0,-1.0,-1.0,-1.0],"normalized":false,"type":"VEC4"},{"bufferView":12,"componentType":5126,"count":30,"max":[1.0,1.0,1.0],"min":[-1.0,-1.0,-0.0000152590218931437],"normalized":false,"type":"VEC3"},{"bufferView":13,"componentType":5126,"count":30,"max":[1.0,1.0],"min":[0.0,0.0],"normalized":false,"type":"VEC2"},{"bufferView":14,"componentType":5123,"count":30,"max":[29.0],"min":[0.0],"normalized":false,"type":"SCALAR"},{"bufferView":15,"componentType":5126,"count":24,"max":[-6.8430027961731,1.4811350107193,4.48426485061646],"min":[-7.57795763015747,0.673137009143829,0.433358639478683],"normalized":false,"type":"VEC3"},{"bufferView":16,"componentType":5126,"count":24,"max":[0.0,0.0,0.0000763009302318096,-1.0],"min":[-1.0,-1.0,-1.0,-1.0],"normalized":false,"type":"VEC4"},{"bufferView":17,"componentType":5126,"count":24,"max":[1.0,1.0,1.0],"min":[-1.0,-0.0000152592547237873,-0.0000152590218931437],"normalized":false,"type":"VEC3"},{"bufferView":18,"componentType":5126,"count":24,"max":[1.0,1.0],"min":[0.0,0.0],"normalized":false,"type":"VEC2"},{"bufferView":19,"componentType":5123,"count":24,"max":[23.0],"min":[0.0],"normalized":false,"type":"SCALAR"},{"bufferView":20,"componentType":5126,"count":36,"max":[-6.84120273590088,1.48635792732239,0.435198605060577],"min":[-9.41414070129395,0.673137009143829,-0.272208631038666],"normalized":false,"type":"VEC3"},{"bufferView":21,"componentType":5126,"count":36,"max":[0.999999701976776,0.0,0.0000763009302318096,-1.0],"min":[-0.000671837595291436,-1.0,-0.999999761581421,-1.0],"normalized":false,"type":"VEC4"},{"bufferView":22,"componentType":5126,"count":36,"max":[0.999999761581421,1.0,0.999999761581421],"min":[-0.000732958549633622,-0.0000152695029100869,-0.999999761581421],"normalized":false,"type":"VEC3"},{"bufferView":23,"componentType":5126,"count":36,"max":[1.0,1.0],"min":[0.0,0.0],"normalized":false,"type":"VEC2"},{"bufferView":24,"componentType":5123,"count":36,"max":[35.0],"min":[0.0],"normalized":false,"type":"SCALAR"},{"bufferView":25,"componentType":5126,"count":30,"max":[-6.84965133666992,1.474937915802,5.11111927032471],"min":[-8.43592834472656,0.673137009143829,4.48538112640381],"normalized":false,"type":"VEC3"},{"bufferView":26,"componentType":5126,"count":30,"max":[0.999999701976776,0.0,0.0000763009302318096,-1.0],"min":[-0.000671837595291436,-1.0,-0.999999761581421,-1.0],"normalized":false,"type":"VEC4"},{"bufferView":27,"componentType":5126,"count":30,"max":[0.999999761581421,1.0,0.999999761581421],"min":[-0.999999761581421,-0.0000152695029100869,-0.999999761581421],"normalized":false,"type":"VEC3"},{"bufferView":28,"componentType":5126,"count":30,"max":[1.0,1.0],"min":[0.0,0.0],"normalized":false,"type":"VEC2"},{"bufferView":29,"componentType":5123,"count":30,"max":[29.0],"min":[0.0],"normalized":false,"type":"SCALAR"},{"bufferView":30,"componentType":5126,"count":102,"max":[9.43594360351563,4.93984031677246,6.85530996322632],"min":[-9.97695732116699,-0.0601599216461182,-7.54445028305054],"normalized":false,"type":"VEC3"},{"bufferView":31,"componentType":5126,"count":102,"max":[0.0,0.0,0.0000763009302318096,-1.0],"min":[-1.0,-1.0,-1.0,-1.0],"normalized":false,"type":"VEC4"},{"bufferView":32,"componentType":5126,"count":102,"max":[1.0,1.0,1.0],"min":[-1.0,-1.0,-1.0],"normalized":false,"type":"VEC3"},{"bufferView":33,"componentType":5126,"count":102,"max":[1.0,1.0],"min":[0.0,0.0],"normalized":false,"type":"VEC2"},{"bufferView":34,"componentType":5123,"count":102,"max":[101.0],"min":[0.0],"normalized":false,"type":"SCALAR"},{"bufferView":35,"componentType":5126,"count":78,"max":[9.99600315093994,4.98315000534058,8.47851467132568],"min":[9.31271648406982,-0.0484099388122559,-7.5398850440979],"normalized":false,"type":"VEC3"},{"bufferView":36,"componentType":5126,"count":78,"max":[-0.0000152597203850746,0.0000457791611552238,1.0,1.0],"min":[-1.0,-1.0,-1.0,-1.0],"normalized":false,"type":"VEC4"},{"bufferView":37,"componentType":5126,"count":78,"max":[1.0,1.0,1.0],"min":[-1.0,-1.0,-1.0],"normalized":false,"type":"VEC3"},{"bufferView":38,"componentType":5126,"count":78,"max":[1.0,1.0],"min":[0.0,0.0],"normalized":false,"type":"VEC2"},{"bufferView":39,"componentType":5123,"count":78,"max":[77.0],"min":[0.0],"normalized":false,"type":"SCALAR"},{"bufferView":40,"componentType":5126,"count":102,"max":[-9.41413974761963,4.99716997146606,7.47795677185059],"min":[-10.0441408157349,-0.00283002853393555,-7.56704330444336],"normalized":false,"type":"VEC3"},{"bufferView":41,"componentType":5126,"count":102,"max":[-0.0000152597203850746,0.0000457791611552238,1.0,1.0],"min":[-1.0,-1.0,-1.0,-1.0],"normalized":false,"type":"VEC4"},{"bufferView":42,"componentType":5126,"count":102,"max":[1.0,1.0,1.0],"min":[-1.0,-1.0,-1.0],"normalized":false,"type":"VEC3"},{"bufferView":43,"componentType":5126,"count":102,"max":[1.0,1.0],"min":[0.0,0.0],"normalized":false,"type":"VEC2"},{"bufferView":44,"componentType":5123,"count":102,"max":[101.0],"min":[0.0],"normalized":false,"type":"SCALAR"},{"bufferView":45,"componentType":5126,"count":30,"max":[9.31271743774414,4.94142007827759,7.48531007766724],"min":[-9.76392841339111,0.673137009143829,6.85530996322632],"normalized":false,"type":"VEC3"},{"bufferView":46,"componentType":5126,"count":30,"max":[-0.0000152601860463619,0.0,0.0000763009302318096,-1.0],"min":[-1.0,-1.0,-0.0000457784626632929,-1.0],"normalized":false,"type":"VEC4"},{"bufferView":47,"componentType":5126,"count":30,"max":[0.0,0.0,1.0],"min":[-1.0,-0.0000152592547237873,-1.0],"normalized":false,"type":"VEC3"},{"bufferView":48,"componentType":5126,"count":30,"max":[1.0,1.0],"min":[0.00752191571518779,0.00752191571518779],"normalized":false,"type":"VEC2"},{"bufferView":49,"componentType":5123,"count":30,"max":[29.0],"min":[0.0],"normalized":false,"type":"SCALAR"},{"bufferView":50,"componentType":5126,"count":60,"max":[1.16399693489075,2.96184015274048,7.56326007843018],"min":[-0.844012975692749,0.480640053749084,6.69425964355469],"normalized":false,"type":"VEC3"},{"bufferView":51,"componentType":5126,"count":60,"max":[0.0,0.0,0.0000152592547237873,1.0],"min":[-1.0,-1.0,-1.0,1.0],"normalized":false,"type":"VEC4"},{"bufferView":52,"componentType":5126,"count":60,"max":[1.0,1.0,1.0],"min":[-1.0,-1.0,-1.0],"normalized":false,"type":"VEC3"},{"bufferView":53,"componentType":5126,"count":60,"max":[1.0,1.0],"min":[0.0,0.0],"normalized":false,"type":"VEC2"},{"bufferView":54,"componentType":5123,"count":60,"max":[59.0],"min":[0.0],"normalized":false,"type":"SCALAR"},{"bufferView":55,"componentType":5126,"count":363,"max":[1.1455899477005,2.87964010238647,4.98307991027832],"min":[-4.35418033599854,-1.12321996688843,-5.48900032043457],"normalized":false,"type":"VEC3"},{"bufferView":56,"componentType":5126,"count":363,"max":[0.0,0.0,0.0000763009302318096,-1.0],"min":[-1.0,-1.0,-1.0,-1.0],"normalized":false,"type":"VEC4"},{"bufferView":57,"componentType":5126,"count":363,"max":[1.0,1.0,1.0],"min":[-1.0,-1.0,-1.0],"normalized":false,"type":"VEC3"},{"bufferView":58,"componentType":5126,"count":363,"max":[1.0,1.0],"min":[0.0,0.0],"normalized":false,"type":"VEC2"},{"bufferView":59,"componentType":5123,"count":363,"max":[362.0],"min":[0.0],"normalized":false,"type":"SCALAR"},{"bufferView":60,"componentType":5126,"count":870,"max":[8.41977024078369,1.49087309837341,6.76395988464355],"min":[-9.25874042510986,-1.0,-3.21924042701721],"normalized":false,"type":"VEC3"},{"bufferView":61,"componentType":5126,"count":870,"max":[1.0,0.0000647405249765143,0.999696910381317,1.0],"min":[-0.999698519706726,-0.0000215795153053477,-1.0,-1.0],"normalized":false,"type":"VEC4"},{"bufferView":62,"componentType":5126,"count":870,"max":[0.999696969985962,1.0,0.999696910381317],"min":[-1.0,-1.0,-0.999696552753448],"normalized":false,"type":"VEC3"},{"bufferView":63,"componentType":5126,"count":870,"max":[1.0,1.0],"min":[0.0,0.0],"normalized":false,"type":"VEC2"},{"bufferView":64,"componentType":5123,"count":870,"max":[869.0],"min":[0.0],"normalized":false,"type":"SCALAR"}],"asset":{"generator":"Godot Engine v4.5.1.stable.steam@f62fdbde15035c5576dad93e586201f4d41ef0cb","version":"2.0"},"bufferViews":[{"buffer":0,"byteLength":8892,"byteStride":12,"target":34962},{"buffer":0,"byteLength":11856,"byteOffset":8892,"byteStride":16,"target":34962},{"buffer":0,"byteLength":8892,"byteOffset":20748,"byteStride":12,"target":34962},{"buffer":0,"byteLength":5928,"byteOffset":29640,"byteStride":8,"target":34962},{"buffer":0,"byteLength":1482,"byteOffset":35568,"target":34963},{"buffer":0,"byteLength":1008,"byteOffset":37052,"byteStride":12,"target":34962},{"buffer":0,"byteLength":1344,"byteOffset":38060,"byteStride":16,"target":34962},{"buffer":0,"byteLength":1008,"byteOffset":39404,"byteStride":12,"target":34962},{"buffer":0,"byteLength":672,"byteOffset":40412,"byteStride":8,"target":34962},{"buffer":0,"byteLength":168,"byteOffset":41084,"target":34963},{"buffer":0,"byteLength":360,"byteOffset":41252,"byteStride":12,"target":34962},{"buffer":0,"byteLength":480,"byteOffset":41612,"byteStride":16,"target":34962},{"buffer":0,"byteLength":360,"byteOffset":42092,"byteStride":12,"target":34962},{"buffer":0,"byteLength":240,"byteOffset":42452,"byteStride":8,"target":34962},{"buffer":0,"byteLength":60,"byteOffset":42692,"target":34963},{"buffer":0,"byteLength":288,"byteOffset":42752,"byteStride":12,"target":34962},{"buffer":0,"byteLength":384,"byteOffset":43040,"byteStride":16,"target":34962},{"buffer":0,"byteLength":288,"byteOffset":43424,"byteStride":12,"target":34962},{"buffer":0,"byteLength":192,"byteOffset":43712,"byteStride":8,"target":34962},{"buffer":0,"byteLength":48,"byteOffset":43904,"target":34963},{"buffer":0,"byteLength":432,"byteOffset":43952,"byteStride":12,"target":34962},{"buffer":0,"byteLength":576,"byteOffset":44384,"byteStride":16,"target":34962},{"buffer":0,"byteLength":432,"byteOffset":44960,"byteStride":12,"target":34962},{"buffer":0,"byteLength":288,"byteOffset":45392,"byteStride":8,"target":34962},{"buffer":0,"byteLength":72,"byteOffset":45680,"target":34963},{"buffer":0,"byteLength":360,"byteOffset":45752,"byteStride":12,"target":34962},{"buffer":0,"byteLength":480,"byteOffset":46112,"byteStride":16,"target":34962},{"buffer":0,"byteLength":360,"byteOffset":46592,"byteStride":12,"target":34962},{"buffer":0,"byteLength":240,"byteOffset":46952,"byteStride":8,"target":34962},{"buffer":0,"byteLength":60,"byteOffset":47192,"target":34963},{"buffer":0,"byteLength":1224,"byteOffset":47252,"byteStride":12,"target":34962},{"buffer":0,"byteLength":1632,"byteOffset":48476,"byteStride":16,"target":34962},{"buffer":0,"byteLength":1224,"byteOffset":50108,"byteStride":12,"target":34962},{"buffer":0,"byteLength":816,"byteOffset":51332,"byteStride":8,"target":34962},{"buffer":0,"byteLength":204,"byteOffset":52148,"target":34963},{"buffer":0,"byteLength":936,"byteOffset":52352,"byteStride":12,"target":34962},{"buffer":0,"byteLength":1248,"byteOffset":53288,"byteStride":16,"target":34962},{"buffer":0,"byteLength":936,"byteOffset":54536,"byteStride":12,"target":34962},{"buffer":0,"byteLength":624,"byteOffset":55472,"byteStride":8,"target":34962},{"buffer":0,"byteLength":156,"byteOffset":56096,"target":34963},{"buffer":0,"byteLength":1224,"byteOffset":56252,"byteStride":12,"target":34962},{"buffer":0,"byteLength":1632,"byteOffset":57476,"byteStride":16,"target":34962},{"buffer":0,"byteLength":1224,"byteOffset":59108,"byteStride":12,"target":34962},{"buffer":0,"byteLength":816,"byteOffset":60332,"byteStride":8,"target":34962},{"buffer":0,"byteLength":204,"byteOffset":61148,"target":34963},{"buffer":0,"byteLength":360,"byteOffset":61352,"byteStride":12,"target":34962},{"buffer":0,"byteLength":480,"byteOffset":61712,"byteStride":16,"target":34962},{"buffer":0,"byteLength":360,"byteOffset":62192,"byteStride":12,"target":34962},{"buffer":0,"byteLength":240,"byteOffset":62552,"byteStride":8,"target":34962},{"buffer":0,"byteLength":60,"byteOffset":62792,"target":34963},{"buffer":0,"byteLength":720,"byteOffset":62852,"byteStride":12,"target":34962},{"buffer":0,"byteLength":960,"byteOffset":63572,"byteStride":16,"target":34962},{"buffer":0,"byteLength":720,"byteOffset":64532,"byteStride":12,"target":34962},{"buffer":0,"byteLength":480,"byteOffset":65252,"byteStride":8,"target":34962},{"buffer":0,"byteLength":120,"byteOffset":65732,"target":34963},{"buffer":0,"byteLength":4356,"byteOffset":65852,"byteStride":12,"target":34962},{"buffer":0,"byteLength":5808,"byteOffset":70208,"byteStride":16,"target":34962},{"buffer":0,"byteLength":4356,"byteOffset":76016,"byteStride":12,"target":34962},{"buffer":0,"byteLength":2904,"byteOffset":80372,"byteStride":8,"target":34962},{"buffer":0,"byteLength":726,"byteOffset":83276,"target":34963},{"buffer":0,"byteLength":10440,"byteOffset":84004,"byteStride":12,"target":34962},{"buffer":0,"byteLength":13920,"byteOffset":94444,"byteStride":16,"target":34962},{"buffer":0,"byteLength":10440,"byteOffset":108364,"byteStride":12,"target":34962},{"buffer":0,"byteLength":6960,"byteOffset":118804,"byteStride":8,"target":34962},{"buffer":0,"byteLength":1740,"byteOffset":125764,"target":34963}],"buffers":[{"byteLength":127504,"uri":"lojinha0.bin"}],"extensions":{"KHR_lights_punctual":{"lights":[{"color":[1.0,1.0,0.00972121302038431],"intensity":2.93899989128113,"range":5.0,"type":"point"},{"color":[1.0,1.0,0.00972121302038431],"intensity":0.177000001072884,"range":5.0,"type":"point"},{"color":[1.0,1.0,0.00972121302038431],"intensity":3.23499989509583,"range":5.0,"type":"point"}]}},"extensionsRequired":["KHR_texture_transform"],"extensionsUsed":["GODOT_single_root","KHR_lights_punctual","KHR_texture_transform"],"images":[{"uri":"textures%2F_albedo.png"},{"uri":"textures%2F_albedo2.png"},{"uri":"textures%2F_albedo3.png"},{"uri":"textures%2F_albedo4.png"},{"uri":"textures%2F_albedo5.png"},{"uri":"textures%2F_albedo6.png"},{"uri":"textures%2F_albedo7.png"},{"uri":"textures%2F_albedo8.png"}],"materials":[{"extensions":{},"pbrMetallicRoughness":{"baseColorFactor":[1.0,1.0,1.0,1.0],"baseColorTexture":{"index":0},"metallicFactor":0.0,"roughnessFactor":1.0}},{"extensions":{},"pbrMetallicRoughness":{"baseColorFactor":[1.0,1.0,1.0,1.0],"baseColorTexture":{"index":1},"metallicFactor":0.0,"roughnessFactor":1.0}},{"extensions":{},"pbrMetallicRoughness":{"baseColorFactor":[0.0864736214280128,0.0864736214280128,0.0864736214280128,1.0],"baseColorTexture":{"index":2},"metallicFactor":0.0,"roughnessFactor":1.0}},{"extensions":{},"pbrMetallicRoughness":{"baseColorFactor":[1.0,1.0,1.0,1.0],"baseColorTexture":{"extensions":{"KHR_texture_transform":{"scale":[0.100000001490116,0.100000001490116]}},"index":3},"metallicFactor":0.0,"roughnessFactor":1.0}},{"extensions":{},"pbrMetallicRoughness":{"baseColorFactor":[1.0,1.0,1.0,1.0],"baseColorTexture":{"extensions":{"KHR_texture_transform":{"scale":[0.100000001490116,0.100000001490116]}},"index":4},"metallicFactor":0.0,"roughnessFactor":1.0}},{"extensions":{},"pbrMetallicRoughness":{"baseColorFactor":[1.0,1.0,1.0,1.0],"baseColorTexture":{"extensions":{"KHR_texture_transform":{"scale":[0.100000001490116,0.100000001490116]}},"index":5},"metallicFactor":0.0,"roughnessFactor":1.0}},{"extensions":{},"pbrMetallicRoughness":{"baseColorFactor":[1.0,1.0,1.0,1.0],"baseColorTexture":{"index":6},"metallicFactor":0.0,"roughnessFactor":1.0}},{"extensions":{},"pbrMetallicRoughness":{"baseColorFactor":[1.0,1.0,1.0,1.0],"baseColorTexture":{"index":7},"metallicFactor":0.0,"roughnessFactor":1.0}},{"extensions":{},"pbrMetallicRoughness":{"baseColorFactor":[1.0,1.0,1.0,1.0],"baseColorTexture":{"index":8},"metallicFactor":0.0,"roughnessFactor":1.0}},{"extensions":{},"pbrMetallicRoughness":{"baseColorFactor":[1.0,1.0,1.0,1.0],"baseColorTexture":{"index":9},"metallicFactor":0.0,"roughnessFactor":1.0}},{"extensions":{},"pbrMetallicRoughness":{"baseColorFactor":[1.0,1.0,1.0,1.0],"baseColorTexture":{"index":10},"metallicFactor":0.0,"roughnessFactor":1.0}},{"extensions":{},"pbrMetallicRoughness":{"baseColorFactor":[1.0,1.0,1.0,1.0],"baseColorTexture":{"extensions":{"KHR_texture_transform":{"scale":[0.300000011920929,0.300000011920929]}},"index":11},"metallicFactor":0.0,"roughnessFactor":1.0}},{"extensions":{},"pbrMetallicRoughness":{"baseColorFactor":[1.0,1.0,1.0,1.0],"baseColorTexture":{"extensions":{"KHR_texture_transform":{"scale":[0.061999998986721,0.061999998986721]}},"index":12},"metallicFactor":0.0,"roughnessFactor":1.0}}],"meshes":[{"primitives":[{"attributes":{"NORMAL":2,"POSITION":0,"TANGENT":1,"TEXCOORD_0":3},"indices":4,"material":0,"mode":4},{"attributes":{"NORMAL":7,"POSITION":5,"TANGENT":6,"TEXCOORD_0":8},"indices":9,"material":1,"mode":4},{"attributes":{"NORMAL":12,"POSITION":10,"TANGENT":11,"TEXCOORD_0":13},"indices":14,"material":2,"mode":4},{"attributes":{"NORMAL":17,"POSITION":15,"TANGENT":16,"TEXCOORD_0":18},"indices":19,"material":3,"mode":4},{"attributes":{"NORMAL":22,"POSITION":20,"TANGENT":21,"TEXCOORD_0":23},"indices":24,"material":4,"mode":4},{"attributes":{"NORMAL":27,"POSITION":25,"TANGENT":26,"TEXCOORD_0":28},"indices":29,"material":5,"mode":4},{"attributes":{"NORMAL":32,"POSITION":30,"TANGENT":31,"TEXCOORD_0":33},"indices":34,"material":6,"mode":4},{"attributes":{"NORMAL":37,"POSITION":35,"TANGENT":36,"TEXCOORD_0":38},"indices":39,"material":7,"mode":4},{"attributes":{"NORMAL":42,"POSITION":40,"TANGENT":41,"TEXCOORD_0":43},"indices":44,"material":8,"mode":4},{"attributes":{"NORMAL":47,"POSITION":45,"TANGENT":46,"TEXCOORD_0":48},"indices":49,"material":9,"mode":4},{"attributes":{"NORMAL":52,"POSITION":50,"TANGENT":51,"TEXCOORD_0":53},"indices":54,"material":10,"mode":4},{"attributes":{"NORMAL":57,"POSITION":55,"TANGENT":56,"TEXCOORD_0":58},"indices":59,"material":11,"mode":4},{"attributes":{"NORMAL":62,"POSITION":60,"TANGENT":61,"TEXCOORD_0":63},"indices":64,"material":12,"mode":4}]}],"nodes":[{"children":[1,2,3,4,5,6,7,8,9,10,11,12,13,20],"mesh":0,"name":"CSGCombiner3D2"},{"name":"Chão","translation":[0.0,0.173136994242668,0.521332025527954]},{"name":"Chão2","translation":[0.0,5.44142007827759,0.521332025527954]},{"name":"Entrada","translation":[-0.00925541017204523,0.437667012214661,8.87782001495361]},{"name":"Bancada3","translation":[-7.21048021316528,0.981135010719299,2.44479990005493]},{"name":"Bancada2","rotation":[0.0,-0.706853747367859,0.0,0.707359731197357],"translation":[-8.35515022277832,0.986357986927032,0.0816576033830643]},{"name":"Bancada","rotation":[0.0,-0.706853747367859,0.0,0.707359731197357],"translation":[-7.64278984069824,0.974937975406647,4.79825019836426]},{"name":"Parede2","translation":[-0.270507007837296,2.43984007835388,-7.22945022583008]},{"name":"Parede4","translation":[-0.270507991313934,2.43984007835388,6.93481016159058]},{"name":"Parede","rotation":[0.0,0.70710676908493,0.0,0.70710676908493],"translation":[9.65435981750488,2.46737003326416,0.469314992427826]},{"name":"Parede3","rotation":[0.0,0.70710676908493,0.0,0.70710676908493],"translation":[-9.72914028167725,2.49716997146606,-0.0445432998239994]},{"name":"Parede c porta","translation":[0.0835713967680931,2.47902989387512,7.17031002044678]},{"name":"CSGBox3D7","translation":[0.15999199450016,1.72124004364014,7.12875986099243]},{"children":[14,15,16,17,18,19],"name":"CSGCombiner3D22"},{"name":"Pratilheira","translation":[1.00888001918793,0.876779973506927,-3.48900008201599]},{"name":"Pratilheira2","translation":[1.12858998775482,0.876779973506927,2.98307991027832]},{"name":"Pratilheira3","translation":[-1.55350995063782,0.876779973506927,2.98307991027832]},{"name":"Pratilheira4","translation":[-4.33718013763428,0.879639983177185,2.97164988517761]},{"name":"Pratilheira5","translation":[-4.24121999740601,0.876779973506927,-3.3667299747467]},{"name":"Pratilheira6","translation":[-1.66772997379303,0.876779973506927,-3.45427989959717]},{"children":[21,22,23,24,25,26,27,28,29,30,31,32],"name":"CSGCombiner3D3"},{"name":"Planta","translation":[1.69133996963501,0.0,6.26395988464355]},{"name":"Planta2","translation":[-1.45313000679016,0.0,6.26395988464355]},{"name":"Planta3","translation":[-8.75874042510986,0.0,-0.852967023849487]},{"name":"CSGCylinder3D","rotation":[0.0,-0.495549768209457,0.0,0.868579566478729],"translation":[6.68115997314453,0.89087301492691,-1.82062995433807]},{"name":"CSGCylinder3D2","rotation":[0.0,-0.495549768209457,0.0,0.868579566478729],"translation":[5.08939981460571,0.612917006015778,-0.879714012145996]},{"name":"CSGCylinder3D3","rotation":[0.0,-0.495549768209457,0.0,0.868579566478729],"translation":[8.05076026916504,0.676671981811523,-2.8502299785614]},{"name":"CSGCylinder3D4","rotation":[0.0,0.456104069948196,0.0,0.889926433563232],"translation":[5.52023983001709,0.89087301492691,2.37050008773804]},{"name":"CSGCylinder3D5","rotation":[0.0,0.456104069948196,0.0,0.889926433563232],"translation":[7.0213098526001,0.612917006015778,3.45022988319397]},{"name":"CSGCylinder3D6","rotation":[0.0,0.456104069948196,0.0,0.889926433563232],"translation":[4.02720022201538,0.676671981811523,1.52982997894287]},{"extensions":{"KHR_lights_punctual":{"light":0}},"name":"OmniLight3D","translation":[0.0,4.29961013793945,0.0]},{"extensions":{"KHR_lights_punctual":{"light":1}},"name":"OmniLight3D2","translation":[-8.08129024505615,4.29961013793945,-0.000000706489004187461]},{"extensions":{"KHR_lights_punctual":{"light":2}},"name":"OmniLight3D3","translation":[4.98271989822388,2.68561005592346,0.420531988143921]}],"samplers":[{"magFilter":9729,"minFilter":9987,"wrapS":10497,"wrapT":10497}],"scene":0,"scenes":[{"nodes":[0]}],"textures":[{"sampler":0,"source":0},{"sampler":0,"source":1},{"sampler":0,"source":2},{"sampler":0,"source":3},{"sampler":0,"source":3},{"sampler":0,"source":3},{"sampler":0,"source":4},{"sampler":0,"source":4},{"sampler":0,"source":4},{"sampler":0,"source":5},{"sampler":0,"source":2},{"sampler":0,"source":6},{"sampler":0,"source":7}]}