{"accessors":[{"bufferView":0,"componentType":5126,"count":4122,"max":[-70.4824981689453,21.6619606018066,10.2770500183105],"min":[-171.391693115234,-10.8351802825928,-147.809555053711],"normalized":false,"type":"VEC3"},{"bufferView":1,"componentType":5126,"count":4122,"max":[0.000095372975920327,0.0105570163577795,0.0439413450658321,1.0],"min":[-1.0,-1.0,-1.0,-1.0],"normalized":false,"type":"VEC4"},{"bufferView":2,"componentType":5126,"count":4122,"max":[1.0,1.0,1.0],"min":[-1.0,-1.0,-1.0],"normalized":false,"type":"VEC3"},{"bufferView":3,"componentType":5126,"count":4122,"max":[1.0,1.0],"min":[0.0,0.0],"normalized":false,"type":"VEC2"},{"bufferView":4,"componentType":5123,"count":4122,"max":[4121.0],"min":[0.0],"normalized":false,"type":"SCALAR"},{"bufferView":5,"componentType":5126,"count":48,"max":[-150.740188598633,5.70397996902466,-17.0539016723633],"min":[-168.758087158203,-0.186699867248535,-20.5130996704102],"normalized":false,"type":"VEC3"},{"bufferView":6,"componentType":5126,"count":48,"max":[0.0,0.0,0.0000763009302318096,-1.0],"min":[-1.0,-1.0,-1.0,-1.0],"normalized":false,"type":"VEC4"},{"bufferView":7,"componentType":5126,"count":48,"max":[0.0,1.0,1.0],"min":[-1.0,-1.0,-1.0],"normalized":false,"type":"VEC3"},{"bufferView":8,"componentType":5126,"count":48,"max":[1.0,1.0],"min":[0.0,0.0],"normalized":false,"type":"VEC2"},{"bufferView":9,"componentType":5123,"count":48,"max":[47.0],"min":[0.0],"normalized":false,"type":"SCALAR"},{"bufferView":10,"componentType":5126,"count":618,"max":[-70.5800018310547,1.27553606033325,10.0239028930664],"min":[-170.580001831055,0.275536000728607,-147.700103759766],"normalized":false,"type":"VEC3"},{"bufferView":11,"componentType":5126,"count":618,"max":[0.0000457805581390858,0.0,0.0000763009302318096,-1.0],"min":[-1.0,-1.0,-1.0,-1.0],"normalized":false,"type":"VEC4"},{"bufferView":12,"componentType":5126,"count":618,"max":[1.0,1.0,1.0],"min":[-1.0,-1.0,-1.0],"normalized":false,"type":"VEC3"},{"bufferView":13,"componentType":5126,"count":618,"max":[1.0,1.0],"min":[0.0,0.0],"normalized":false,"type":"VEC2"},{"bufferView":14,"componentType":5123,"count":618,"max":[617.0],"min":[0.0],"normalized":false,"type":"SCALAR"}],"asset":{"generator":"Godot Engine v4.5.1.stable.steam@f62fdbde15035c5576dad93e586201f4d41ef0cb","version":"2.0"},"bufferViews":[{"buffer":0,"byteLength":49464,"byteStride":12,"target":34962},{"buffer":0,"byteLength":65952,"byteOffset":49464,"byteStride":16,"target":34962},{"buffer":0,"byteLength":49464,"byteOffset":115416,"byteStride":12,"target":34962},{"buffer":0,"byteLength":32976,"byteOffset":164880,"byteStride":8,"target":34962},{"buffer":0,"byteLength":8244,"byteOffset":197856,"target":34963},{"buffer":0,"byteLength":576,"byteOffset":206100,"byteStride":12,"target":34962},{"buffer":0,"byteLength":768,"byteOffset":206676,"byteStride":16,"target":34962},{"buffer":0,"byteLength":576,"byteOffset":207444,"byteStride":12,"target":34962},{"buffer":0,"byteLength":384,"byteOffset":208020,"byteStride":8,"target":34962},{"buffer":0,"byteLength":96,"byteOffset":208404,"target":34963},{"buffer":0,"byteLength":7416,"byteOffset":208500,"byteStride":12,"target":34962},{"buffer":0,"byteLength":9888,"byteOffset":215916,"byteStride":16,"target":34962},{"buffer":0,"byteLength":7416,"byteOffset":225804,"byteStride":12,"target":34962},{"buffer":0,"byteLength":4944,"byteOffset":233220,"byteStride":8,"target":34962},{"buffer":0,"byteLength":1236,"byteOffset":238164,"target":34963}],"buffers":[{"byteLength":239400,"uri":"school0.bin"}],"extensions":{"KHR_lights_punctual":{"lights":[{"color":[0.0466652028262615,0.00749902566894889,0.194617480039597],"intensity":16.0,"range":4096.0,"type":"point"},{"color":[0.0466652028262615,0.00749902566894889,0.194617480039597],"intensity":15.664999961853,"range":38.2430000305176,"type":"point"},{"color":[0.0466652028262615,0.00749902566894889,0.194617480039597],"intensity":16.0,"range":4096.0,"type":"point"},{"color":[0.0466652028262615,0.00749902566894889,0.194617480039597],"intensity":16.0,"range":4096.0,"type":"point"},{"color":[0.0466652028262615,0.00749902566894889,0.194617480039597],"intensity":16.0,"range":10.0,"spot":{"innerConeAngle":0.642598509788513,"outerConeAngle":0.785398185253143},"type":"spot"}]},"OMI_physics_shape":{"shapes":[{"box":{"size":[4.60500001907349,3.0,3.0]},"type":"box"}]}},"extensionsRequired":["KHR_texture_transform"],"extensionsUsed":["GODOT_single_root","KHR_lights_punctual","KHR_texture_transform","OMI_physics_body","OMI_physics_shape"],"images":[{"uri":"textures%2F_albedo.png"}],"materials":[{},{"extensions":{},"pbrMetallicRoughness":{"baseColorFactor":[1.0,0.0,0.0,1.0],"metallicFactor":0.0,"roughnessFactor":1.0}},{"extensions":{},"pbrMetallicRoughness":{"baseColorFactor":[1.0,1.0,1.0,1.0],"baseColorTexture":{"extensions":{"KHR_texture_transform":{"scale":[0.200000002980232,0.200000002980232]}},"index":0},"metallicFactor":0.0,"roughnessFactor":1.0}}],"meshes":[{"primitives":[{"attributes":{"NORMAL":2,"POSITION":0,"TANGENT":1,"TEXCOORD_0":3},"indices":4,"material":0,"mode":4},{"attributes":{"NORMAL":7,"POSITION":5,"TANGENT":6,"TEXCOORD_0":8},"indices":9,"material":1,"mode":4},{"attributes":{"NORMAL":12,"POSITION":10,"TANGENT":11,"TEXCOORD_0":13},"indices":14,"material":2,"mode":4}]}],"nodes":[{"children":[1,2,3,4,5,6,7,8,9,10,11,12,13,14,15,16,17,18,19,20,21,22,23,24,25,26,27,28,29,30,31,32,33,34,35,36,37,38,39,40,41,42,43,44,45,46,47,48,49,50,51,54,55,56,57],"mesh":0,"name":"CSGCombiner3D22","scale":[0.400000005960464,0.400000005960464,0.400000005960464]},{"name":"CSGBox3D10","translation":[-106.649002075195,5.80795001983643,1.86670994758606]},{"name":"CSGBox3D41","translation":[-120.791999816895,18.077600479126,-38.996898651123]},{"name":"CSGBox3D34","translation":[-106.649002075195,5.80795001983643,-46.4762992858887]},{"name":"CSGBox3D35","translation":[-125.208999633789,5.80795001983643,-46.4762992858887]},{"name":"CSGBox3D37","translation":[-125.330001831055,5.80795001983643,-65.3595962524414]},{"name":"CSGBox3D38","translation":[-106.513999938965,5.80795001983643,-63.6214981079102]},{"name":"CSGBox3D36","translation":[-115.944000244141,5.80795001983643,-62.4308013916016]},{"name":"CSGBox3D11","translation":[-125.924003601074,3.69261002540588,3.10842990875244]},{"name":"CSGBox3D14","translation":[-149.47200012207,10.0277004241943,-17.5436000823975]},{"name":"CSGBox3D33","translation":[-170.311996459961,10.9729995727539,-39.1393013000488]},{"name":"CSGBox3D32","translation":[-149.488006591797,9.55815029144287,-117.776000976563]},{"name":"CSGBox3D39","translation":[-170.139007568359,9.55815029144287,-117.776000976563]},{"name":"CSGBox3D42","translation":[-159.757995605469,20.1627006530762,-117.776000976563]},{"name":"CSGBox3D40","translation":[-159.522994995117,9.55815029144287,-147.095993041992]},{"name":"CSGBox3D16","translation":[-139.352996826172,2.75864005088806,-17.7273998260498]},{"name":"CSGBox3D31","translation":[-138.772994995117,8.78981971740723,-34.0097999572754]},{"name":"blocked_way","translation":[-159.610992431641,2.75864005088806,-18.7835006713867]},{"name":"CSGBox3D12","translation":[-128.42399597168,3.47972011566162,-30.8785991668701]},{"name":"choao","translation":[-120.580001831055,0.775536000728607,-68.8380966186523]},{"name":"CSGBox3D2","translation":[-120.728996276855,11.0037002563477,9.77705001831055]},{"name":"CSGBox3D3","translation":[-120.622001647949,11.2700004577637,-87.6495971679688]},{"name":"CSGBox3D4","translation":[-70.8029022216797,10.9734001159668,-68.3347015380859]},{"name":"door","translation":[-70.9990005493164,4.16134977340698,4.60791015625]},{"name":"door4","translation":[-138.848007202148,5.07257986068726,-34.0523986816406]},{"name":"door5","translation":[-161.10400390625,5.07257986068726,-87.7714996337891]},{"name":"CSGBox3D5","translation":[-75.7219009399414,4.21295022964478,-0.292701005935669]},{"name":"CSGBox3D8","translation":[-82.2231979370117,4.21295022964478,-13.7957000732422]},{"name":"CSGBox3D6","translation":[-89.7846984863281,4.21295022964478,-0.406046003103256]},{"name":"CSGBox3D7","translation":[-92.86669921875,8.36493968963623,-43.9762001037598]},{"name":"CSGBox3D9","translation":[-104.496002197266,8.36493968963623,-39.4589996337891]},{"name":"door2","rotation":[0.0,0.00513126980513334,0.0,0.999986827373505],"translation":[-93.1259002685547,6.30870008468628,-81.1501007080078]},{"name":"door3","translation":[-104.628997802734,6.22789001464844,-81.3612976074219]},{"name":"door8","translation":[-117.225997924805,6.22789001464844,-61.9252014160156]},{"name":"door6","translation":[-104.628997802734,6.22789001464844,-54.1293983459473]},{"name":"door7","translation":[-129.031997680664,6.22789001464844,-54.5842018127441]},{"name":"CSGBox3D13","translation":[-138.751998901367,0.817017018795013,-15.5045003890991]},{"name":"CSGBox3D17","rotation":[-0.0212565083056688,0.0,0.0,0.999774098396301],"translation":[-159.938003540039,3.56394004821777,-8.89535999298096]},{"name":"CSGBox3D23","rotation":[-0.0212565083056688,0.0,0.0,0.999774098396301],"translation":[-159.938003540039,2.16776990890503,-12.075400352478]},{"name":"CSGBox3D18","rotation":[-0.0212565083056688,0.0,0.0,0.999774098396301],"translation":[-159.811996459961,5.22788000106812,-4.84791994094849]},{"name":"CSGBox3D19","rotation":[-0.0212565083056688,0.0,0.0,0.999774098396301],"translation":[-159.651992797852,7.3984899520874,-1.66079998016357]},{"name":"CSGBox3D20","rotation":[-0.0212565083056688,0.0,0.0,0.999774098396301],"translation":[-159.565002441406,8.71990966796875,1.93206000328064]},{"name":"CSGBox3D21","rotation":[-0.0212565083056688,0.0,0.0,0.999774098396301],"translation":[-159.550003051758,10.859299659729,4.9769401550293]},{"name":"CSGBox3D22","rotation":[-0.0212565083056688,0.0,0.0,0.999774098396301],"translation":[-159.647994995117,12.8014001846313,7.81520986557007]},{"name":"CSGBox3D24","rotation":[-0.0212565083056688,0.0,0.0,0.999774098396301],"translation":[-138.529998779297,12.8006000518799,7.79660987854004]},{"name":"CSGBox3D25","rotation":[-0.0212565083056688,0.0,0.0,0.999774098396301],"translation":[-138.529998779297,14.7206001281738,4.25533008575439]},{"name":"CSGBox3D26","rotation":[-0.0212565083056688,0.0,0.0,0.999774098396301],"translation":[-138.529998779297,16.1035995483398,1.35172998905182]},{"name":"CSGBox3D27","rotation":[-0.0212565083056688,0.0,0.0,0.999774098396301],"translation":[-139.47200012207,16.9484004974365,-1.85201001167297]},{"name":"CSGBox3D28","rotation":[-0.0212565083056688,0.0,0.0,0.999774098396301],"translation":[-139.47200012207,17.9395999908447,-4.93312978744507]},{"name":"CSGBox3D29","rotation":[-0.0212565083056688,0.0,0.0,0.999774098396301],"translation":[-139.098007202148,18.785400390625,-7.93953990936279]},{"name":"CSGBox3D30","rotation":[-0.0212565083056688,0.0,0.0,0.999774098396301],"translation":[-139.098007202148,19.4922008514404,-11.2108001708984]},{"children":[52],"extensions":{"KHR_lights_punctual":{"light":0}},"name":"OmniLight3D","translation":[-97.8942031860352,18.048999786377,-52.8352012634277]},{"children":[53],"extensions":{"OMI_physics_body":{"trigger":{"nodes":[53.0]}}},"name":"level_trans","translation":[-18.9358005523682,-7.46233987808228,-31.5151996612549]},{"extensions":{"OMI_physics_body":{"trigger":null}},"name":"CollisionShape3D","scale":[2.0,2.0,2.0],"translation":[-7.01376008987427,3.94314002990723,37.5675010681152]},{"extensions":{"KHR_lights_punctual":{"light":1}},"name":"OmniLight3D2","translation":[-145.348999023438,15.7125997543335,-52.8352012634277]},{"extensions":{"KHR_lights_punctual":{"light":2}},"name":"OmniLight3D3","translation":[-161.358001708984,16.7761001586914,-52.8352012634277]},{"extensions":{"KHR_lights_punctual":{"light":3}},"name":"OmniLight3D4","translation":[-161.358001708984,18.048999786377,-118.491996765137]},{"extensions":{"KHR_lights_punctual":{"light":4}},"name":"secretary_light","rotation":[-0.70710676908493,0.0,0.0,0.70710676908493],"scale":[2.5,2.5,2.5],"translation":[-81.9195098876953,17.0831069946289,-7.45828914642334]}],"samplers":[{"magFilter":9729,"minFilter":9987,"wrapS":10497,"wrapT":10497}],"scene":0,"scenes":[{"nodes":[0]}],"textures":[{"sampler":0,"source":0}]}