{"accessors":[{"bufferView":0,"componentType":5126,"count":168,"max":[10.0,0.673137009143829,8.54283142089844],"min":[-10.0,-0.326862990856171,-7.50016784667969],"normalized":false,"type":"VEC3"},{"bufferView":1,"componentType":5126,"count":168,"max":[0.0000610388815402985,0.0,0.0000763009302318096,-1.0],"min":[-1.0,-1.0,-1.0,-1.0],"normalized":false,"type":"VEC4"},{"bufferView":2,"componentType":5126,"count":168,"max":[1.0,1.0,1.0],"min":[-1.0,-1.0,-1.0],"normalized":false,"type":"VEC3"},{"bufferView":3,"componentType":5126,"count":168,"max":[1.0,1.0],"min":[0.0,0.0],"normalized":false,"type":"VEC2"},{"bufferView":4,"componentType":5123,"count":168,"max":[167.0],"min":[0.0],"normalized":false,"type":"SCALAR"},{"bufferView":5,"componentType":5126,"count":84,"max":[10.0,5.94142007827759,8.54283142089844],"min":[-10.0,4.94142007827759,-7.50016784667969],"normalized":false,"type":"VEC3"},{"bufferView":6,"componentType":5126,"count":84,"max":[0.0,0.0,0.0000763009302318096,-1.0],"min":[-1.0,-1.0,-1.0,-1.0],"normalized":false,"type":"VEC4"},{"bufferView":7,"componentType":5126,"count":84,"max":[1.0,1.0,1.0],"min":[-1.0,-1.0,-1.0],"normalized":false,"type":"VEC3"},{"bufferView":8,"componentType":5126,"count":84,"max":[1.0,1.0],"min":[0.0,0.0],"normalized":false,"type":"VEC2"},{"bufferView":9,"componentType":5123,"count":84,"max":[83.0],"min":[0.0],"normalized":false,"type":"SCALAR"},{"bufferView":10,"componentType":5126,"count":30,"max":[4.99999475479126,0.537667036056519,10.2836446762085],"min":[-5.01850557327271,0.337667018175125,8.54283142089844],"normalized":false,"type":"VEC3"},{"bufferView":11,"componentType":5126,"count":30,"max":[0.0,0.0,0.0000763009302318096,-1.0],"min":[-1.0,-1.0,-1.0,-1.0],"normalized":false,"type":"VEC4"},{"bufferView":12,"componentType":5126,"count":30,"max":[1.0,1.0,1.0],"min":[-1.0,-1.0,-0.0000152590218931437],"normalized":false,"type":"VEC3"},{"bufferView":13,"componentType":5126,"count":30,"max":[1.0,1.0],"min":[0.0,0.0],"normalized":false,"type":"VEC2"},{"bufferView":14,"componentType":5123,"count":30,"max":[29.0],"min":[0.0],"normalized":false,"type":"SCALAR"},{"bufferView":15,"componentType":5126,"count":24,"max":[-6.8430027961731,1.4811350107193,4.48426485061646],"min":[-7.57795763015747,0.673137009143829,0.433358639478683],"normalized":false,"type":"VEC3"},{"bufferView":16,"componentType":5126,"count":24,"max":[0.0,0.0,0.0000763009302318096,-1.0],"min":[-1.0,-1.0,-1.0,-1.0],"normalized":false,"type":"VEC4"},{"bufferView":17,"componentType":5126,"count":24,"max":[1.0,1.0,1.0],"min":[-1.0,-0.0000152592547237873,-0.0000152590218931437],"normalized":false,"type":"VEC3"},{"bufferView":18,"componentType":5126,"count":24,"max":[1.0,1.0],"min":[0.0,0.0],"normalized":false,"type":"VEC2"},{"bufferView":19,"componentType":5123,"count":24,"max":[23.0],"min":[0.0],"normalized":false,"type":"SCALAR"},{"bufferView":20,"componentType":5126,"count":36,"max":[-6.84120273590088,1.48635792732239,0.435198605060577],"min":[-9.41414070129395,0.673137009143829,-0.272208631038666],"normalized":false,"type":"VEC3"},{"bufferView":21,"componentType":5126,"count":36,"max":[0.999999701976776,0.0,0.0000763009302318096,-1.0],"min":[-0.000671837595291436,-1.0,-0.999999761581421,-1.0],"normalized":false,"type":"VEC4"},{"bufferView":22,"componentType":5126,"count":36,"max":[0.999999761581421,1.0,0.999999761581421],"min":[-0.000732958549633622,-0.0000152695029100869,-0.999999761581421],"normalized":false,"type":"VEC3"},{"bufferView":23,"componentType":5126,"count":36,"max":[1.0,1.0],"min":[0.0,0.0],"normalized":false,"type":"VEC2"},{"bufferView":24,"componentType":5123,"count":36,"max":[35.0],"min":[0.0],"normalized":false,"type":"SCALAR"},{"bufferView":25,"componentType":5126,"count":30,"max":[-6.84965133666992,1.474937915802,5.11111927032471],"min":[-8.43592834472656,0.673137009143829,4.48538112640381],"normalized":false,"type":"VEC3"},{"bufferView":26,"componentType":5126,"count":30,"max":[0.999999701976776,0.0,0.0000763009302318096,-1.0],"min":[-0.000671837595291436,-1.0,-0.999999761581421,-1.0],"normalized":false,"type":"VEC4"},{"bufferView":27,"componentType":5126,"count":30,"max":[0.999999761581421,1.0,0.999999761581421],"min":[-0.999999761581421,-0.0000152695029100869,-0.999999761581421],"normalized":false,"type":"VEC3"},{"bufferView":28,"componentType":5126,"count":30,"max":[1.0,1.0],"min":[0.0,0.0],"normalized":false,"type":"VEC2"},{"bufferView":29,"componentType":5123,"count":30,"max":[29.0],"min":[0.0],"normalized":false,"type":"SCALAR"},{"bufferView":30,"componentType":5126,"count":78,"max":[9.43594360351563,4.93984031677246,6.85530996322632],"min":[-9.97695732116699,-0.0601599216461182,-7.54445028305054],"normalized":false,"type":"VEC3"},{"bufferView":31,"componentType":5126,"count":78,"max":[0.0,0.0,0.0000763009302318096,-1.0],"min":[-1.0,-1.0,-1.0,-1.0],"normalized":false,"type":"VEC4"},{"bufferView":32,"componentType":5126,"count":78,"max":[1.0,1.0,1.0],"min":[-1.0,-1.0,-1.0],"normalized":false,"type":"VEC3"},{"bufferView":33,"componentType":5126,"count":78,"max":[1.0,1.0],"min":[0.0,0.0],"normalized":false,"type":"VEC2"},{"bufferView":34,"componentType":5123,"count":78,"max":[77.0],"min":[0.0],"normalized":false,"type":"SCALAR"},{"bufferView":35,"componentType":5126,"count":78,"max":[9.99600315093994,4.98315000534058,8.47851467132568],"min":[9.31271648406982,-0.0484099388122559,-7.5398850440979],"normalized":false,"type":"VEC3"},{"bufferView":36,"componentType":5126,"count":78,"max":[-0.0000152597203850746,0.0000457791611552238,1.0,1.0],"min":[-1.0,-1.0,-1.0,-1.0],"normalized":false,"type":"VEC4"},{"bufferView":37,"componentType":5126,"count":78,"max":[1.0,1.0,1.0],"min":[-1.0,-1.0,-1.0],"normalized":false,"type":"VEC3"},{"bufferView":38,"componentType":5126,"count":78,"max":[1.0,1.0],"min":[0.0,0.0],"normalized":false,"type":"VEC2"},{"bufferView":39,"componentType":5123,"count":78,"max":[77.0],"min":[0.0],"normalized":false,"type":"SCALAR"},{"bufferView":40,"componentType":5126,"count":102,"max":[-9.41413974761963,4.99716997146606,7.47795677185059],"min":[-10.0441408157349,-0.00283002853393555,-7.56704330444336],"normalized":false,"type":"VEC3"},{"bufferView":41,"componentType":5126,"count":102,"max":[-0.0000152597203850746,0.0000457791611552238,1.0,1.0],"min":[-1.0,-1.0,-1.0,-1.0],"normalized":false,"type":"VEC4"},{"bufferView":42,"componentType":5126,"count":102,"max":[1.0,1.0,1.0],"min":[-1.0,-1.0,-1.0],"normalized":false,"type":"VEC3"},{"bufferView":43,"componentType":5126,"count":102,"max":[1.0,1.0],"min":[0.0,0.0],"normalized":false,"type":"VEC2"},{"bufferView":44,"componentType":5123,"count":102,"max":[101.0],"min":[0.0],"normalized":false,"type":"SCALAR"},{"bufferView":45,"componentType":5126,"count":30,"max":[9.31271743774414,4.94142007827759,7.48531007766724],"min":[-9.76392841339111,0.673137009143829,6.85530996322632],"normalized":false,"type":"VEC3"},{"bufferView":46,"componentType":5126,"count":30,"max":[-0.0000152601860463619,0.0,0.0000763009302318096,-1.0],"min":[-1.0,-1.0,-0.0000457784626632929,-1.0],"normalized":false,"type":"VEC4"},{"bufferView":47,"componentType":5126,"count":30,"max":[0.0,0.0,1.0],"min":[-1.0,-0.0000152592547237873,-1.0],"normalized":false,"type":"VEC3"},{"bufferView":48,"componentType":5126,"count":30,"max":[1.0,1.0],"min":[0.00752191571518779,0.00752191571518779],"normalized":false,"type":"VEC2"},{"bufferView":49,"componentType":5123,"count":30,"max":[29.0],"min":[0.0],"normalized":false,"type":"SCALAR"},{"bufferView":50,"componentType":5126,"count":60,"max":[1.16399693489075,2.96184015274048,7.56326007843018],"min":[-0.844012975692749,0.480640053749084,6.69425964355469],"normalized":false,"type":"VEC3"},{"bufferView":51,"componentType":5126,"count":60,"max":[0.0,0.0,0.0000152592547237873,1.0],"min":[-1.0,-1.0,-1.0,1.0],"normalized":false,"type":"VEC4"},{"bufferView":52,"componentType":5126,"count":60,"max":[1.0,1.0,1.0],"min":[-1.0,-1.0,-1.0],"normalized":false,"type":"VEC3"},{"bufferView":53,"componentType":5126,"count":60,"max":[1.0,1.0],"min":[0.0,0.0],"normalized":false,"type":"VEC2"},{"bufferView":54,"componentType":5123,"count":60,"max":[59.0],"min":[0.0],"normalized":false,"type":"SCALAR"}],"asset":{"generator":"Godot Engine v4.5.1.stable.steam@f62fdbde15035c5576dad93e586201f4d41ef0cb","version":"2.0"},"bufferViews":[{"buffer":0,"byteLength":2016,"byteStride":12,"target":34962},{"buffer":0,"byteLength":2688,"byteOffset":2016,"byteStride":16,"target":34962},{"buffer":0,"byteLength":2016,"byteOffset":4704,"byteStride":12,"target":34962},{"buffer":0,"byteLength":1344,"byteOffset":6720,"byteStride":8,"target":34962},{"buffer":0,"byteLength":336,"byteOffset":8064,"target":34963},{"buffer":0,"byteLength":1008,"byteOffset":8400,"byteStride":12,"target":34962},{"buffer":0,"byteLength":1344,"byteOffset":9408,"byteStride":16,"target":34962},{"buffer":0,"byteLength":1008,"byteOffset":10752,"byteStride":12,"target":34962},{"buffer":0,"byteLength":672,"byteOffset":11760,"byteStride":8,"target":34962},{"buffer":0,"byteLength":168,"byteOffset":12432,"target":34963},{"buffer":0,"byteLength":360,"byteOffset":12600,"byteStride":12,"target":34962},{"buffer":0,"byteLength":480,"byteOffset":12960,"byteStride":16,"target":34962},{"buffer":0,"byteLength":360,"byteOffset":13440,"byteStride":12,"target":34962},{"buffer":0,"byteLength":240,"byteOffset":13800,"byteStride":8,"target":34962},{"buffer":0,"byteLength":60,"byteOffset":14040,"target":34963},{"buffer":0,"byteLength":288,"byteOffset":14100,"byteStride":12,"target":34962},{"buffer":0,"byteLength":384,"byteOffset":14388,"byteStride":16,"target":34962},{"buffer":0,"byteLength":288,"byteOffset":14772,"byteStride":12,"target":34962},{"buffer":0,"byteLength":192,"byteOffset":15060,"byteStride":8,"target":34962},{"buffer":0,"byteLength":48,"byteOffset":15252,"target":34963},{"buffer":0,"byteLength":432,"byteOffset":15300,"byteStride":12,"target":34962},{"buffer":0,"byteLength":576,"byteOffset":15732,"byteStride":16,"target":34962},{"buffer":0,"byteLength":432,"byteOffset":16308,"byteStride":12,"target":34962},{"buffer":0,"byteLength":288,"byteOffset":16740,"byteStride":8,"target":34962},{"buffer":0,"byteLength":72,"byteOffset":17028,"target":34963},{"buffer":0,"byteLength":360,"byteOffset":17100,"byteStride":12,"target":34962},{"buffer":0,"byteLength":480,"byteOffset":17460,"byteStride":16,"target":34962},{"buffer":0,"byteLength":360,"byteOffset":17940,"byteStride":12,"target":34962},{"buffer":0,"byteLength":240,"byteOffset":18300,"byteStride":8,"target":34962},{"buffer":0,"byteLength":60,"byteOffset":18540,"target":34963},{"buffer":0,"byteLength":936,"byteOffset":18600,"byteStride":12,"target":34962},{"buffer":0,"byteLength":1248,"byteOffset":19536,"byteStride":16,"target":34962},{"buffer":0,"byteLength":936,"byteOffset":20784,"byteStride":12,"target":34962},{"buffer":0,"byteLength":624,"byteOffset":21720,"byteStride":8,"target":34962},{"buffer":0,"byteLength":156,"byteOffset":22344,"target":34963},{"buffer":0,"byteLength":936,"byteOffset":22500,"byteStride":12,"target":34962},{"buffer":0,"byteLength":1248,"byteOffset":23436,"byteStride":16,"target":34962},{"buffer":0,"byteLength":936,"byteOffset":24684,"byteStride":12,"target":34962},{"buffer":0,"byteLength":624,"byteOffset":25620,"byteStride":8,"target":34962},{"buffer":0,"byteLength":156,"byteOffset":26244,"target":34963},{"buffer":0,"byteLength":1224,"byteOffset":26400,"byteStride":12,"target":34962},{"buffer":0,"byteLength":1632,"byteOffset":27624,"byteStride":16,"target":34962},{"buffer":0,"byteLength":1224,"byteOffset":29256,"byteStride":12,"target":34962},{"buffer":0,"byteLength":816,"byteOffset":30480,"byteStride":8,"target":34962},{"buffer":0,"byteLength":204,"byteOffset":31296,"target":34963},{"buffer":0,"byteLength":360,"byteOffset":31500,"byteStride":12,"target":34962},{"buffer":0,"byteLength":480,"byteOffset":31860,"byteStride":16,"target":34962},{"buffer":0,"byteLength":360,"byteOffset":32340,"byteStride":12,"target":34962},{"buffer":0,"byteLength":240,"byteOffset":32700,"byteStride":8,"target":34962},{"buffer":0,"byteLength":60,"byteOffset":32940,"target":34963},{"buffer":0,"byteLength":720,"byteOffset":33000,"byteStride":12,"target":34962},{"buffer":0,"byteLength":960,"byteOffset":33720,"byteStride":16,"target":34962},{"buffer":0,"byteLength":720,"byteOffset":34680,"byteStride":12,"target":34962},{"buffer":0,"byteLength":480,"byteOffset":35400,"byteStride":8,"target":34962},{"buffer":0,"byteLength":120,"byteOffset":35880,"target":34963}],"buffers":[{"byteLength":36000,"uri":"store0.bin"}],"extensionsRequired":["KHR_texture_transform"],"extensionsUsed":["GODOT_single_root","KHR_texture_transform"],"images":[{"uri":"textures%2F_albedo.png"},{"uri":"textures%2F_albedo2.png"},{"uri":"textures%2F_albedo3.png"},{"uri":"textures%2F_albedo4.png"},{"uri":"textures%2F_albedo5.png"},{"uri":"textures%2F_albedo6.png"}],"materials":[{"extensions":{},"pbrMetallicRoughness":{"baseColorFactor":[1.0,1.0,1.0,1.0],"baseColorTexture":{"index":0},"metallicFactor":0.0,"roughnessFactor":1.0}},{"extensions":{},"pbrMetallicRoughness":{"baseColorFactor":[1.0,1.0,1.0,1.0],"baseColorTexture":{"index":1},"metallicFactor":0.0,"roughnessFactor":1.0}},{"extensions":{},"pbrMetallicRoughness":{"baseColorFactor":[0.0864736214280128,0.0864736214280128,0.0864736214280128,1.0],"baseColorTexture":{"index":2},"metallicFactor":0.0,"roughnessFactor":1.0}},{"extensions":{},"pbrMetallicRoughness":{"baseColorFactor":[1.0,1.0,1.0,1.0],"baseColorTexture":{"extensions":{"KHR_texture_transform":{"scale":[0.100000001490116,0.100000001490116]}},"index":3},"metallicFactor":0.0,"roughnessFactor":1.0}},{"extensions":{},"pbrMetallicRoughness":{"baseColorFactor":[1.0,1.0,1.0,1.0],"baseColorTexture":{"extensions":{"KHR_texture_transform":{"scale":[0.100000001490116,0.100000001490116]}},"index":4},"metallicFactor":0.0,"roughnessFactor":1.0}},{"extensions":{},"pbrMetallicRoughness":{"baseColorFactor":[1.0,1.0,1.0,1.0],"baseColorTexture":{"extensions":{"KHR_texture_transform":{"scale":[0.100000001490116,0.100000001490116]}},"index":5},"metallicFactor":0.0,"roughnessFactor":1.0}},{"extensions":{},"pbrMetallicRoughness":{"baseColorFactor":[1.0,1.0,1.0,1.0],"baseColorTexture":{"index":6},"metallicFactor":0.0,"roughnessFactor":1.0}},{"extensions":{},"pbrMetallicRoughness":{"baseColorFactor":[1.0,1.0,1.0,1.0],"baseColorTexture":{"index":7},"metallicFactor":0.0,"roughnessFactor":1.0}},{"extensions":{},"pbrMetallicRoughness":{"baseColorFactor":[1.0,1.0,1.0,1.0],"baseColorTexture":{"index":8},"metallicFactor":0.0,"roughnessFactor":1.0}},{"extensions":{},"pbrMetallicRoughness":{"baseColorFactor":[1.0,1.0,1.0,1.0],"baseColorTexture":{"index":9},"metallicFactor":0.0,"roughnessFactor":1.0}},{"extensions":{},"pbrMetallicRoughness":{"baseColorFactor":[1.0,1.0,1.0,1.0],"baseColorTexture":{"index":10},"metallicFactor":0.0,"roughnessFactor":1.0}}],"meshes":[{"primitives":[{"attributes":{"NORMAL":2,"POSITION":0,"TANGENT":1,"TEXCOORD_0":3},"indices":4,"material":0,"mode":4},{"attributes":{"NORMAL":7,"POSITION":5,"TANGENT":6,"TEXCOORD_0":8},"indices":9,"material":1,"mode":4},{"attributes":{"NORMAL":12,"POSITION":10,"TANGENT":11,"TEXCOORD_0":13},"indices":14,"material":2,"mode":4},{"attributes":{"NORMAL":17,"POSITION":15,"TANGENT":16,"TEXCOORD_0":18},"indices":19,"material":3,"mode":4},{"attributes":{"NORMAL":22,"POSITION":20,"TANGENT":21,"TEXCOORD_0":23},"indices":24,"material":4,"mode":4},{"attributes":{"NORMAL":27,"POSITION":25,"TANGENT":26,"TEXCOORD_0":28},"indices":29,"material":5,"mode":4},{"attributes":{"NORMAL":32,"POSITION":30,"TANGENT":31,"TEXCOORD_0":33},"indices":34,"material":6,"mode":4},{"attributes":{"NORMAL":37,"POSITION":35,"TANGENT":36,"TEXCOORD_0":38},"indices":39,"material":7,"mode":4},{"attributes":{"NORMAL":42,"POSITION":40,"TANGENT":41,"TEXCOORD_0":43},"indices":44,"material":8,"mode":4},{"attributes":{"NORMAL":47,"POSITION":45,"TANGENT":46,"TEXCOORD_0":48},"indices":49,"material":9,"mode":4},{"attributes":{"NORMAL":52,"POSITION":50,"TANGENT":51,"TEXCOORD_0":53},"indices":54,"material":10,"mode":4}]}],"nodes":[{"children":[1,2,3,4,5,6,7,8,9,10,11,12],"mesh":0,"name":"CSGCombiner3D2"},{"name":"Chão","translation":[0.0,0.173136994242668,0.521332025527954]},{"name":"Chão2","translation":[0.0,5.44142007827759,0.521332025527954]},{"name":"Entrada","translation":[-0.00925541017204523,0.437667012214661,8.87782001495361]},{"name":"Bancada3","translation":[-7.21048021316528,0.981135010719299,2.44479990005493]},{"name":"Bancada2","rotation":[0.0,-0.706853747367859,0.0,0.707359731197357],"translation":[-8.35515022277832,0.986357986927032,0.0816576033830643]},{"name":"Bancada","rotation":[0.0,-0.706853747367859,0.0,0.707359731197357],"translation":[-7.64278984069824,0.974937975406647,4.79825019836426]},{"name":"Parede2","translation":[-0.270507007837296,2.43984007835388,-7.22945022583008]},{"name":"Parede4","translation":[-0.270507991313934,2.43984007835388,6.93481016159058]},{"name":"Parede","rotation":[0.0,0.70710676908493,0.0,0.70710676908493],"translation":[9.65435981750488,2.46737003326416,0.469314992427826]},{"name":"Parede3","rotation":[0.0,0.70710676908493,0.0,0.70710676908493],"translation":[-9.72914028167725,2.49716997146606,-0.0445432998239994]},{"name":"Parede c porta","translation":[0.0835713967680931,2.47902989387512,7.17031002044678]},{"name":"CSGBox3D7","translation":[0.15999199450016,1.72124004364014,7.12875986099243]}],"samplers":[{"magFilter":9729,"minFilter":9987,"wrapS":10497,"wrapT":10497}],"scene":0,"scenes":[{"nodes":[0]}],"textures":[{"sampler":0,"source":0},{"sampler":0,"source":1},{"sampler":0,"source":2},{"sampler":0,"source":3},{"sampler":0,"source":3},{"sampler":0,"source":3},{"sampler":0,"source":4},{"sampler":0,"source":4},{"sampler":0,"source":4},{"sampler":0,"source":5},{"sampler":0,"source":2}]}